<mxfile host="app.diagrams.net" modified="2021-05-13T04:45:16.208Z" agent="5.0 (Windows NT 10.0; Win64; x64) AppleWebKit/537.36 (KHTML, like Gecko) Chrome/90.0.4430.93 Safari/537.36" etag="eiV6PUAXLJ37CJNbGx3d" version="14.6.12" type="github">
  <diagram id="C5RBs43oDa-KdzZeNtuy" name="Page-1">
    <mxGraphModel dx="1422" dy="762" grid="1" gridSize="10" guides="1" tooltips="1" connect="1" arrows="1" fold="1" page="1" pageScale="1" pageWidth="827" pageHeight="1169" math="0" shadow="0">
      <root>
        <mxCell id="WIyWlLk6GJQsqaUBKTNV-0" />
        <mxCell id="WIyWlLk6GJQsqaUBKTNV-1" parent="WIyWlLk6GJQsqaUBKTNV-0" />
        <mxCell id="tLQ2EFuySAdlvntt6kJF-4" style="edgeStyle=orthogonalEdgeStyle;rounded=0;orthogonalLoop=1;jettySize=auto;html=1;entryX=0.5;entryY=0;entryDx=0;entryDy=0;" edge="1" parent="WIyWlLk6GJQsqaUBKTNV-1" source="tLQ2EFuySAdlvntt6kJF-0" target="tLQ2EFuySAdlvntt6kJF-3">
          <mxGeometry relative="1" as="geometry" />
        </mxCell>
        <mxCell id="tLQ2EFuySAdlvntt6kJF-0" value="Start camera feed, load inventory data" style="rounded=1;whiteSpace=wrap;html=1;fontSize=12;glass=0;strokeWidth=1;shadow=0;" vertex="1" parent="WIyWlLk6GJQsqaUBKTNV-1">
          <mxGeometry x="330" y="40" width="120" height="70" as="geometry" />
        </mxCell>
        <mxCell id="tLQ2EFuySAdlvntt6kJF-6" style="edgeStyle=orthogonalEdgeStyle;rounded=0;orthogonalLoop=1;jettySize=auto;html=1;entryX=0.5;entryY=0;entryDx=0;entryDy=0;" edge="1" parent="WIyWlLk6GJQsqaUBKTNV-1" source="tLQ2EFuySAdlvntt6kJF-3" target="tLQ2EFuySAdlvntt6kJF-5">
          <mxGeometry relative="1" as="geometry" />
        </mxCell>
        <mxCell id="tLQ2EFuySAdlvntt6kJF-3" value="Display item at center of frame" style="rounded=1;whiteSpace=wrap;html=1;fontSize=12;glass=0;strokeWidth=1;shadow=0;" vertex="1" parent="WIyWlLk6GJQsqaUBKTNV-1">
          <mxGeometry x="330" y="140" width="120" height="70" as="geometry" />
        </mxCell>
        <mxCell id="tLQ2EFuySAdlvntt6kJF-12" style="edgeStyle=orthogonalEdgeStyle;rounded=0;orthogonalLoop=1;jettySize=auto;html=1;exitX=0.5;exitY=1;exitDx=0;exitDy=0;" edge="1" parent="WIyWlLk6GJQsqaUBKTNV-1" source="tLQ2EFuySAdlvntt6kJF-5" target="tLQ2EFuySAdlvntt6kJF-11">
          <mxGeometry relative="1" as="geometry" />
        </mxCell>
        <mxCell id="tLQ2EFuySAdlvntt6kJF-19" style="edgeStyle=orthogonalEdgeStyle;rounded=0;orthogonalLoop=1;jettySize=auto;html=1;exitX=0;exitY=0;exitDx=0;exitDy=0;entryX=0;entryY=0.5;entryDx=0;entryDy=0;" edge="1" parent="WIyWlLk6GJQsqaUBKTNV-1" source="tLQ2EFuySAdlvntt6kJF-5" target="tLQ2EFuySAdlvntt6kJF-3">
          <mxGeometry relative="1" as="geometry">
            <Array as="points">
              <mxPoint x="310" y="280" />
              <mxPoint x="310" y="175" />
            </Array>
          </mxGeometry>
        </mxCell>
        <mxCell id="tLQ2EFuySAdlvntt6kJF-5" value="&lt;font style=&quot;font-size: 11px&quot;&gt;Is there a person in camera frame?&lt;/font&gt;" style="rhombus;whiteSpace=wrap;html=1;shadow=0;fontFamily=Helvetica;fontSize=12;align=center;strokeWidth=1;spacing=6;spacingTop=-4;" vertex="1" parent="WIyWlLk6GJQsqaUBKTNV-1">
          <mxGeometry x="330" y="250" width="120" height="120" as="geometry" />
        </mxCell>
        <mxCell id="tLQ2EFuySAdlvntt6kJF-10" value="No" style="text;html=1;strokeColor=none;fillColor=none;align=center;verticalAlign=middle;whiteSpace=wrap;rounded=0;fontSize=15;" vertex="1" parent="WIyWlLk6GJQsqaUBKTNV-1">
          <mxGeometry x="270" y="200" width="40" height="20" as="geometry" />
        </mxCell>
        <mxCell id="tLQ2EFuySAdlvntt6kJF-15" style="edgeStyle=orthogonalEdgeStyle;rounded=0;orthogonalLoop=1;jettySize=auto;html=1;exitX=0;exitY=0.5;exitDx=0;exitDy=0;entryX=0.5;entryY=1;entryDx=0;entryDy=0;" edge="1" parent="WIyWlLk6GJQsqaUBKTNV-1" source="tLQ2EFuySAdlvntt6kJF-11" target="tLQ2EFuySAdlvntt6kJF-14">
          <mxGeometry relative="1" as="geometry" />
        </mxCell>
        <mxCell id="tLQ2EFuySAdlvntt6kJF-32" style="edgeStyle=orthogonalEdgeStyle;rounded=0;orthogonalLoop=1;jettySize=auto;html=1;exitX=0.5;exitY=1;exitDx=0;exitDy=0;entryX=0.5;entryY=0;entryDx=0;entryDy=0;fontSize=15;" edge="1" parent="WIyWlLk6GJQsqaUBKTNV-1" source="tLQ2EFuySAdlvntt6kJF-11" target="tLQ2EFuySAdlvntt6kJF-31">
          <mxGeometry relative="1" as="geometry" />
        </mxCell>
        <mxCell id="tLQ2EFuySAdlvntt6kJF-53" style="edgeStyle=orthogonalEdgeStyle;rounded=0;orthogonalLoop=1;jettySize=auto;html=1;exitX=1;exitY=0.5;exitDx=0;exitDy=0;entryX=0;entryY=0.5;entryDx=0;entryDy=0;fontSize=15;" edge="1" parent="WIyWlLk6GJQsqaUBKTNV-1" source="tLQ2EFuySAdlvntt6kJF-11" target="tLQ2EFuySAdlvntt6kJF-49">
          <mxGeometry relative="1" as="geometry" />
        </mxCell>
        <mxCell id="tLQ2EFuySAdlvntt6kJF-11" value="&lt;font style=&quot;font-size: 11px&quot;&gt;Has the person been&lt;br&gt;in the frame for 4s?&lt;br&gt;&lt;/font&gt;" style="rhombus;whiteSpace=wrap;html=1;shadow=0;fontFamily=Helvetica;fontSize=12;align=center;strokeWidth=1;spacing=6;spacingTop=-4;" vertex="1" parent="WIyWlLk6GJQsqaUBKTNV-1">
          <mxGeometry x="330" y="400" width="120" height="120" as="geometry" />
        </mxCell>
        <mxCell id="tLQ2EFuySAdlvntt6kJF-34" style="edgeStyle=orthogonalEdgeStyle;rounded=0;orthogonalLoop=1;jettySize=auto;html=1;exitX=0.5;exitY=0;exitDx=0;exitDy=0;fontSize=15;" edge="1" parent="WIyWlLk6GJQsqaUBKTNV-1" source="tLQ2EFuySAdlvntt6kJF-14" target="tLQ2EFuySAdlvntt6kJF-5">
          <mxGeometry relative="1" as="geometry" />
        </mxCell>
        <mxCell id="tLQ2EFuySAdlvntt6kJF-14" value="Increment impression time" style="rounded=1;whiteSpace=wrap;html=1;fontSize=12;glass=0;strokeWidth=1;shadow=0;" vertex="1" parent="WIyWlLk6GJQsqaUBKTNV-1">
          <mxGeometry x="150" y="350" width="120" height="70" as="geometry" />
        </mxCell>
        <mxCell id="tLQ2EFuySAdlvntt6kJF-17" value="No" style="text;html=1;strokeColor=none;fillColor=none;align=center;verticalAlign=middle;whiteSpace=wrap;rounded=0;fontSize=15;" vertex="1" parent="WIyWlLk6GJQsqaUBKTNV-1">
          <mxGeometry x="270" y="474.5" width="40" height="20" as="geometry" />
        </mxCell>
        <mxCell id="tLQ2EFuySAdlvntt6kJF-18" value="Yes" style="text;html=1;strokeColor=none;fillColor=none;align=center;verticalAlign=middle;whiteSpace=wrap;rounded=0;fontSize=15;" vertex="1" parent="WIyWlLk6GJQsqaUBKTNV-1">
          <mxGeometry x="405" y="375" width="40" height="20" as="geometry" />
        </mxCell>
        <mxCell id="tLQ2EFuySAdlvntt6kJF-35" style="edgeStyle=orthogonalEdgeStyle;rounded=0;orthogonalLoop=1;jettySize=auto;html=1;exitX=0;exitY=0.5;exitDx=0;exitDy=0;entryX=0;entryY=0.5;entryDx=0;entryDy=0;fontSize=15;" edge="1" parent="WIyWlLk6GJQsqaUBKTNV-1" source="tLQ2EFuySAdlvntt6kJF-22" target="tLQ2EFuySAdlvntt6kJF-5">
          <mxGeometry relative="1" as="geometry">
            <Array as="points">
              <mxPoint x="100" y="730" />
              <mxPoint x="100" y="310" />
            </Array>
          </mxGeometry>
        </mxCell>
        <mxCell id="tLQ2EFuySAdlvntt6kJF-38" style="edgeStyle=orthogonalEdgeStyle;rounded=0;orthogonalLoop=1;jettySize=auto;html=1;exitX=0.5;exitY=1;exitDx=0;exitDy=0;entryX=0.5;entryY=0;entryDx=0;entryDy=0;fontSize=15;" edge="1" parent="WIyWlLk6GJQsqaUBKTNV-1" source="tLQ2EFuySAdlvntt6kJF-22" target="tLQ2EFuySAdlvntt6kJF-37">
          <mxGeometry relative="1" as="geometry" />
        </mxCell>
        <mxCell id="tLQ2EFuySAdlvntt6kJF-22" value="&lt;font style=&quot;font-size: 11px&quot;&gt;Is the person &lt;br&gt;touching either side of the mirror?&lt;/font&gt;" style="rhombus;whiteSpace=wrap;html=1;shadow=0;fontFamily=Helvetica;fontSize=12;align=center;strokeWidth=1;spacing=6;spacingTop=-4;" vertex="1" parent="WIyWlLk6GJQsqaUBKTNV-1">
          <mxGeometry x="330" y="670" width="120" height="120" as="geometry" />
        </mxCell>
        <mxCell id="tLQ2EFuySAdlvntt6kJF-23" value="Yes" style="text;html=1;strokeColor=none;fillColor=none;align=center;verticalAlign=middle;whiteSpace=wrap;rounded=0;fontSize=15;" vertex="1" parent="WIyWlLk6GJQsqaUBKTNV-1">
          <mxGeometry x="405" y="527" width="40" height="20" as="geometry" />
        </mxCell>
        <mxCell id="tLQ2EFuySAdlvntt6kJF-33" style="edgeStyle=orthogonalEdgeStyle;rounded=0;orthogonalLoop=1;jettySize=auto;html=1;exitX=0.5;exitY=1;exitDx=0;exitDy=0;entryX=0.5;entryY=0;entryDx=0;entryDy=0;fontSize=15;" edge="1" parent="WIyWlLk6GJQsqaUBKTNV-1" source="tLQ2EFuySAdlvntt6kJF-31" target="tLQ2EFuySAdlvntt6kJF-22">
          <mxGeometry relative="1" as="geometry" />
        </mxCell>
        <mxCell id="tLQ2EFuySAdlvntt6kJF-31" value="Reposition image to&amp;nbsp;&lt;br&gt;left side of frame, increment impression time" style="rounded=1;whiteSpace=wrap;html=1;fontSize=12;glass=0;strokeWidth=1;shadow=0;" vertex="1" parent="WIyWlLk6GJQsqaUBKTNV-1">
          <mxGeometry x="330" y="560" width="120" height="70" as="geometry" />
        </mxCell>
        <mxCell id="tLQ2EFuySAdlvntt6kJF-36" value="No" style="text;html=1;strokeColor=none;fillColor=none;align=center;verticalAlign=middle;whiteSpace=wrap;rounded=0;fontSize=15;" vertex="1" parent="WIyWlLk6GJQsqaUBKTNV-1">
          <mxGeometry x="270" y="700" width="40" height="20" as="geometry" />
        </mxCell>
        <mxCell id="tLQ2EFuySAdlvntt6kJF-41" style="edgeStyle=orthogonalEdgeStyle;rounded=0;orthogonalLoop=1;jettySize=auto;html=1;exitX=0.5;exitY=1;exitDx=0;exitDy=0;entryX=0.5;entryY=0;entryDx=0;entryDy=0;fontSize=15;" edge="1" parent="WIyWlLk6GJQsqaUBKTNV-1" source="tLQ2EFuySAdlvntt6kJF-37" target="tLQ2EFuySAdlvntt6kJF-40">
          <mxGeometry relative="1" as="geometry" />
        </mxCell>
        <mxCell id="tLQ2EFuySAdlvntt6kJF-37" value="Update item displayed on mirror" style="rounded=1;whiteSpace=wrap;html=1;fontSize=12;glass=0;strokeWidth=1;shadow=0;" vertex="1" parent="WIyWlLk6GJQsqaUBKTNV-1">
          <mxGeometry x="330" y="830" width="120" height="70" as="geometry" />
        </mxCell>
        <mxCell id="tLQ2EFuySAdlvntt6kJF-39" value="Yes" style="text;html=1;strokeColor=none;fillColor=none;align=center;verticalAlign=middle;whiteSpace=wrap;rounded=0;fontSize=15;" vertex="1" parent="WIyWlLk6GJQsqaUBKTNV-1">
          <mxGeometry x="405" y="790" width="40" height="20" as="geometry" />
        </mxCell>
        <mxCell id="tLQ2EFuySAdlvntt6kJF-42" style="edgeStyle=orthogonalEdgeStyle;rounded=0;orthogonalLoop=1;jettySize=auto;html=1;exitX=0;exitY=0.5;exitDx=0;exitDy=0;entryX=0;entryY=0.5;entryDx=0;entryDy=0;fontSize=15;" edge="1" parent="WIyWlLk6GJQsqaUBKTNV-1" source="tLQ2EFuySAdlvntt6kJF-40" target="tLQ2EFuySAdlvntt6kJF-5">
          <mxGeometry relative="1" as="geometry">
            <Array as="points">
              <mxPoint x="100" y="1010" />
              <mxPoint x="100" y="310" />
            </Array>
          </mxGeometry>
        </mxCell>
        <mxCell id="tLQ2EFuySAdlvntt6kJF-46" style="edgeStyle=orthogonalEdgeStyle;rounded=0;orthogonalLoop=1;jettySize=auto;html=1;exitX=1;exitY=0.5;exitDx=0;exitDy=0;fontSize=15;" edge="1" parent="WIyWlLk6GJQsqaUBKTNV-1" source="tLQ2EFuySAdlvntt6kJF-40" target="tLQ2EFuySAdlvntt6kJF-45">
          <mxGeometry relative="1" as="geometry" />
        </mxCell>
        <mxCell id="tLQ2EFuySAdlvntt6kJF-40" value="&lt;span style=&quot;font-size: 11px&quot;&gt;Has this impression already made an engagement?&lt;/span&gt;" style="rhombus;whiteSpace=wrap;html=1;shadow=0;fontFamily=Helvetica;fontSize=12;align=center;strokeWidth=1;spacing=6;spacingTop=-4;" vertex="1" parent="WIyWlLk6GJQsqaUBKTNV-1">
          <mxGeometry x="330" y="950" width="120" height="120" as="geometry" />
        </mxCell>
        <mxCell id="tLQ2EFuySAdlvntt6kJF-43" value="No" style="text;html=1;strokeColor=none;fillColor=none;align=center;verticalAlign=middle;whiteSpace=wrap;rounded=0;fontSize=15;" vertex="1" parent="WIyWlLk6GJQsqaUBKTNV-1">
          <mxGeometry x="270" y="980" width="40" height="20" as="geometry" />
        </mxCell>
        <mxCell id="tLQ2EFuySAdlvntt6kJF-47" style="edgeStyle=orthogonalEdgeStyle;rounded=0;orthogonalLoop=1;jettySize=auto;html=1;exitX=0.5;exitY=0;exitDx=0;exitDy=0;entryX=1;entryY=0.5;entryDx=0;entryDy=0;fontSize=15;" edge="1" parent="WIyWlLk6GJQsqaUBKTNV-1" source="tLQ2EFuySAdlvntt6kJF-45" target="tLQ2EFuySAdlvntt6kJF-5">
          <mxGeometry relative="1" as="geometry" />
        </mxCell>
        <mxCell id="tLQ2EFuySAdlvntt6kJF-45" value="Increment # of engagements" style="rounded=1;whiteSpace=wrap;html=1;fontSize=12;glass=0;strokeWidth=1;shadow=0;" vertex="1" parent="WIyWlLk6GJQsqaUBKTNV-1">
          <mxGeometry x="670" y="975" width="120" height="70" as="geometry" />
        </mxCell>
        <mxCell id="tLQ2EFuySAdlvntt6kJF-48" value="Yes" style="text;html=1;strokeColor=none;fillColor=none;align=center;verticalAlign=middle;whiteSpace=wrap;rounded=0;fontSize=15;" vertex="1" parent="WIyWlLk6GJQsqaUBKTNV-1">
          <mxGeometry x="480" y="980" width="40" height="20" as="geometry" />
        </mxCell>
        <mxCell id="tLQ2EFuySAdlvntt6kJF-54" style="edgeStyle=orthogonalEdgeStyle;rounded=0;orthogonalLoop=1;jettySize=auto;html=1;exitX=0.5;exitY=1;exitDx=0;exitDy=0;entryX=0.5;entryY=0;entryDx=0;entryDy=0;fontSize=15;" edge="1" parent="WIyWlLk6GJQsqaUBKTNV-1" source="tLQ2EFuySAdlvntt6kJF-49" target="tLQ2EFuySAdlvntt6kJF-52">
          <mxGeometry relative="1" as="geometry" />
        </mxCell>
        <mxCell id="tLQ2EFuySAdlvntt6kJF-55" style="edgeStyle=orthogonalEdgeStyle;rounded=0;orthogonalLoop=1;jettySize=auto;html=1;exitX=0;exitY=1;exitDx=0;exitDy=0;entryX=1;entryY=0.5;entryDx=0;entryDy=0;fontSize=15;" edge="1" parent="WIyWlLk6GJQsqaUBKTNV-1" source="tLQ2EFuySAdlvntt6kJF-49" target="tLQ2EFuySAdlvntt6kJF-31">
          <mxGeometry relative="1" as="geometry">
            <Array as="points">
              <mxPoint x="495" y="490" />
              <mxPoint x="495" y="595" />
            </Array>
          </mxGeometry>
        </mxCell>
        <mxCell id="tLQ2EFuySAdlvntt6kJF-49" value="&lt;font style=&quot;font-size: 11px&quot;&gt;Is this a new impression?&lt;br&gt;&lt;/font&gt;" style="rhombus;whiteSpace=wrap;html=1;shadow=0;fontFamily=Helvetica;fontSize=12;align=center;strokeWidth=1;spacing=6;spacingTop=-4;" vertex="1" parent="WIyWlLk6GJQsqaUBKTNV-1">
          <mxGeometry x="540" y="400" width="120" height="120" as="geometry" />
        </mxCell>
        <mxCell id="tLQ2EFuySAdlvntt6kJF-50" style="edgeStyle=orthogonalEdgeStyle;rounded=0;orthogonalLoop=1;jettySize=auto;html=1;exitX=0.5;exitY=1;exitDx=0;exitDy=0;fontSize=15;" edge="1" parent="WIyWlLk6GJQsqaUBKTNV-1" source="tLQ2EFuySAdlvntt6kJF-11" target="tLQ2EFuySAdlvntt6kJF-11">
          <mxGeometry relative="1" as="geometry" />
        </mxCell>
        <mxCell id="tLQ2EFuySAdlvntt6kJF-56" style="edgeStyle=orthogonalEdgeStyle;rounded=0;orthogonalLoop=1;jettySize=auto;html=1;exitX=0;exitY=0.5;exitDx=0;exitDy=0;entryX=1;entryY=0.5;entryDx=0;entryDy=0;fontSize=15;" edge="1" parent="WIyWlLk6GJQsqaUBKTNV-1" source="tLQ2EFuySAdlvntt6kJF-52" target="tLQ2EFuySAdlvntt6kJF-31">
          <mxGeometry relative="1" as="geometry" />
        </mxCell>
        <mxCell id="tLQ2EFuySAdlvntt6kJF-52" value="Increment # of engagements" style="rounded=1;whiteSpace=wrap;html=1;fontSize=12;glass=0;strokeWidth=1;shadow=0;" vertex="1" parent="WIyWlLk6GJQsqaUBKTNV-1">
          <mxGeometry x="540" y="560" width="120" height="70" as="geometry" />
        </mxCell>
        <mxCell id="tLQ2EFuySAdlvntt6kJF-57" value="No" style="text;html=1;strokeColor=none;fillColor=none;align=center;verticalAlign=middle;whiteSpace=wrap;rounded=0;fontSize=15;" vertex="1" parent="WIyWlLk6GJQsqaUBKTNV-1">
          <mxGeometry x="500" y="527" width="40" height="20" as="geometry" />
        </mxCell>
        <mxCell id="tLQ2EFuySAdlvntt6kJF-58" value="Yes" style="text;html=1;strokeColor=none;fillColor=none;align=center;verticalAlign=middle;whiteSpace=wrap;rounded=0;fontSize=15;" vertex="1" parent="WIyWlLk6GJQsqaUBKTNV-1">
          <mxGeometry x="610" y="527" width="40" height="20" as="geometry" />
        </mxCell>
      </root>
    </mxGraphModel>
  </diagram>
</mxfile>
